<svg width="50" height="50" viewBox="0 0 50 50" fill="none" xmlns="http://www.w3.org/2000/svg">
<path fill-rule="evenodd" clip-rule="evenodd" d="M17.6528 14.4813C9.67834 17.6298 4 24.7244 4 25C4 25.3547 13.402 37 25 37C29.2762 37 33.2539 35.4169 36.5719 33.4003L32.75 29.5785C31.183 32.2252 28.2988 34 25 34C20.0294 34 16 29.9706 16 25C16 21.7012 17.7748 18.817 20.4215 17.25L17.6528 14.4813ZM33.9984 25.17C33.9995 25.1135 34 25.0568 34 25C34 20.0294 29.9706 16 25 16C24.9432 16 24.8865 16.0005 24.83 16.0016L22.0706 13.2422C23.0279 13.0856 24.0059 13 25 13C37.598 13 46 24.6453 46 25C46 25.1764 43.6755 28.1442 39.9123 31.0839L33.9984 25.17ZM23.4248 20.2532C21.4352 20.9131 20 22.789 20 25C20 27.7614 22.2386 30 25 30C27.211 30 29.0869 28.5648 29.7468 26.5752L23.4248 20.2532Z" fill="#263041"/>
<rect x="8" y="8.82843" width="4" height="46" transform="rotate(-45 8 8.82843)" fill="#263041"/>
</svg>
