<svg width="50" height="50" viewBox="0 0 50 50" fill="none" xmlns="http://www.w3.org/2000/svg">
<path d="M5.5 12.5H42C43.3807 12.5 44.5 13.6193 44.5 15V39C44.5 40.3807 43.3807 41.5 42 41.5H8C6.61929 41.5 5.5 40.3807 5.5 39V12.5Z" stroke="#263041" stroke-width="3"/>
<path d="M4 11C4 8.79086 5.79086 7 8 7H17.7889C18.5786 7 19.3506 7.23375 20.0077 7.6718L22 9L25 11V14H4V11Z" fill="#263041"/>
<circle cx="25" cy="27" r="10.5" stroke="#263041" stroke-width="3"/>
<rect x="24" y="21" width="2" height="12" rx="1" fill="#263041"/>
<rect x="19" y="28" width="2" height="12" rx="1" transform="rotate(-90 19 28)" fill="#263041"/>
</svg>
