<svg width="50" height="50" viewBox="0 0 50 50" fill="none" xmlns="http://www.w3.org/2000/svg">
<path d="M29 7H32V19C30.3431 19 29 17.6569 29 16V7Z" fill="#263041"/>
<path d="M32 19V16H41V19H32Z" fill="#263041"/>
<path fill-rule="evenodd" clip-rule="evenodd" d="M27.0119 43H12C11.4477 43 11 42.5523 11 42V8C11 7.44772 11.4477 7 12 7H30.626C30.9308 7 31.2189 7.139 31.4087 7.37754L37.74 15.3382L38.7979 16.7384C38.929 16.912 39 17.1236 39 17.3412V25.2725C40.0628 25.5081 41.0703 25.8908 42 26.398V17.3412C42 16.4709 41.7161 15.6243 41.1915 14.9299L40.1111 13.5L33.7566 5.51016C32.9977 4.55599 31.8452 4 30.626 4H12C9.79086 4 8 5.79086 8 8V42C8 44.2091 9.79086 46 12 46H30.0173C28.8395 45.1948 27.8192 44.1762 27.0119 43Z" fill="#263041"/>
<circle cx="36.5" cy="36.5" r="10" stroke="#263041" stroke-width="3"/>
<path d="M35.1075 32.3891C35.1075 31.6201 35.7309 30.9966 36.5 30.9966V30.9966C37.2691 30.9966 37.8925 31.6201 37.8925 32.3891V41.6075C37.8925 42.3766 37.2691 43 36.5 43V43C35.7309 43 35.1075 42.3766 35.1075 41.6075V32.3891Z" fill="#263041"/>
<path d="M35.8399 33.2861C35.414 32.8273 35.348 32.1084 35.682 31.5685V31.5685C36.1119 30.8737 37.0157 30.7559 37.587 31.3202L40.9514 34.6439C41.523 35.2087 41.5424 36.173 40.994 36.7639V36.7639C40.462 37.3371 39.5994 37.3371 39.0674 36.7639L35.8399 33.2861Z" fill="#263041"/>
<path d="M37.1601 33.2861C37.586 32.8273 37.652 32.1084 37.318 31.5685V31.5685C36.8881 30.8737 35.9843 30.7559 35.413 31.3202L32.0486 34.6439C31.477 35.2087 31.4576 36.173 32.006 36.7639V36.7639C32.538 37.3371 33.4006 37.3371 33.9326 36.7639L37.1601 33.2861Z" fill="#263041"/>
<path d="M14.5 18C13.6716 18 13 17.3284 13 16.5C13 15.6716 13.6716 15 14.5 15H21.5C22.3284 15 23 15.6716 23 16.5C23 17.3284 22.3284 18 21.5 18H14.5Z" fill="#263041"/>
<path d="M14.5 24C13.6716 24 13 23.3284 13 22.5C13 21.6716 13.6716 21 14.5 21H31.5C32.3284 21 33 21.6716 33 22.5C33 23.3284 32.3284 24 31.5 24H14.5Z" fill="#263041"/>
<path d="M14.5 30C13.6716 30 13 29.3284 13 28.5V28.5C13 27.6716 13.6716 27 14.5 27H30.5C31.3284 27 32 27.6716 32 28.5V28.5C32 29.3284 31.3284 30 30.5 30H14.5Z" fill="#263041"/>
</svg>
