<svg width="50" height="50" viewBox="0 0 50 50" fill="none" xmlns="http://www.w3.org/2000/svg">
<path d="M29 7H32V19V19C30.3431 19 29 17.6569 29 16V7Z" fill="#263041"/>
<path d="M32 19V16H41V19H32Z" fill="#263041"/>
<path fill-rule="evenodd" clip-rule="evenodd" d="M29.1908 43H12C11.4477 43 11 42.5523 11 42V8C11 7.44772 11.4477 7 12 7H30.626C30.9308 7 31.2189 7.139 31.4087 7.37754L37.74 15.3382L38.7979 16.7384C38.929 16.912 39 17.1236 39 17.3412V29.0469C40.0571 29.1466 41.0658 29.4027 42 29.7905V17.3412C42 16.4709 41.7161 15.6243 41.1915 14.9299L40.1111 13.5L33.7566 5.51016C32.9977 4.55599 31.8452 4 30.626 4H12C9.79086 4 8 5.79086 8 8V42C8 44.2091 9.79086 46 12 46H31.8614C30.7665 45.1901 29.8536 44.1685 29.1908 43Z" fill="#263041"/>
<path d="M46.5 38.5C46.5 42.8467 42.7678 46.5 38 46.5C33.2322 46.5 29.5 42.8467 29.5 38.5C29.5 34.1533 33.2322 30.5 38 30.5C42.7678 30.5 46.5 34.1533 46.5 38.5Z" stroke="#263041" stroke-width="3"/>
<path d="M36.9873 35.7027C36.9873 35.1434 37.4407 34.6899 38 34.6899V34.6899C38.5593 34.6899 39.0127 35.1434 39.0127 35.7027V41.9873C39.0127 42.5466 38.5593 43 38 43V43C37.4407 43 36.9873 42.5466 36.9873 41.9873V35.7027Z" fill="#263041"/>
<path d="M37.5199 36.275C37.2102 35.9574 37.1622 35.4597 37.4051 35.0859V35.0859C37.7177 34.6048 38.3751 34.5233 38.7905 34.914L41.2374 37.215C41.6531 37.606 41.6672 38.2736 41.2684 38.6827V38.6827C40.8815 39.0795 40.2541 39.0795 39.8672 38.6827L37.5199 36.275Z" fill="#263041"/>
<path d="M38.4801 36.275C38.7898 35.9574 38.8378 35.4597 38.5949 35.0859V35.0859C38.2823 34.6048 37.6249 34.5233 37.2095 34.914L34.7626 37.215C34.3469 37.606 34.3328 38.2736 34.7316 38.6827V38.6827C35.1185 39.0795 35.7459 39.0795 36.1328 38.6827L38.4801 36.275Z" fill="#263041"/>
<path d="M14.5 18C13.6716 18 13 17.3284 13 16.5V16.5C13 15.6716 13.6716 15 14.5 15H21.5C22.3284 15 23 15.6716 23 16.5V16.5C23 17.3284 22.3284 18 21.5 18H14.5Z" fill="#263041"/>
<path d="M14.5 24C13.6716 24 13 23.3284 13 22.5V22.5C13 21.6716 13.6716 21 14.5 21H31.5C32.3284 21 33 21.6716 33 22.5V22.5C33 23.3284 32.3284 24 31.5 24H14.5Z" fill="#263041"/>
<path d="M14.5 30C13.6716 30 13 29.3284 13 28.5V28.5C13 27.6716 13.6716 27 14.5 27H31.5C32.3284 27 33 27.6716 33 28.5V28.5C33 29.3284 32.3284 30 31.5 30H14.5Z" fill="#263041"/>
</svg>
