<svg width="50" height="50" viewBox="0 0 50 50" fill="none" xmlns="http://www.w3.org/2000/svg">
<path fill-rule="evenodd" clip-rule="evenodd" d="M24 6H40C40.5523 6 41 6.44772 41 7V43C41 43.5523 40.5523 44 40 44H24C23.4477 44 23 43.5523 23 43V36H20V43C20 45.2091 21.7909 47 24 47H40C42.2091 47 44 45.2091 44 43V7C44 4.79086 42.2091 3 40 3H24C21.7909 3 20 4.79086 20 7V14H23V7C23 6.44772 23.4477 6 24 6Z" fill="#263041"/>
<path d="M3.93934 22.9393C3.35355 23.5251 3.35355 24.4749 3.93934 25.0607L13.4853 34.6066C14.0711 35.1924 15.0208 35.1924 15.6066 34.6066C16.1924 34.0208 16.1924 33.0711 15.6066 32.4853L7.12132 24L15.6066 15.5147C16.1924 14.9289 16.1924 13.9792 15.6066 13.3934C15.0208 12.8076 14.0711 12.8076 13.4853 13.3934L3.93934 22.9393ZM32 25.5C32.8284 25.5 33.5 24.8284 33.5 24C33.5 23.1716 32.8284 22.5 32 22.5V25.5ZM5 25.5L17.7059 25.5V22.5L5 22.5V25.5ZM17.7059 25.5L32 25.5V22.5L17.7059 22.5V25.5Z" fill="#263041"/>
</svg>
