<svg width="50" height="50" viewBox="0 0 50 50" fill="none" xmlns="http://www.w3.org/2000/svg">
<path d="M5.5 12.5H42C43.3807 12.5 44.5 13.6193 44.5 15V39C44.5 40.3807 43.3807 41.5 42 41.5H8C6.61929 41.5 5.5 40.3807 5.5 39V12.5Z" stroke="#263041" stroke-width="3"/>
<path d="M4 11C4 8.79086 5.79086 7 8 7H17.7889C18.5786 7 19.3506 7.23375 20.0077 7.6718L22 9L25 11V14H4V11Z" fill="#263041"/>
<path d="M33.5 27.5C33.5 31.8467 29.7678 35.5 25 35.5C20.2322 35.5 16.5 31.8467 16.5 27.5C16.5 23.1533 20.2322 19.5 25 19.5C29.7678 19.5 33.5 23.1533 33.5 27.5Z" stroke="#263041" stroke-width="3"/>
<path d="M23.9873 24.7027C23.9873 24.1434 24.4407 23.6899 25 23.6899V23.6899C25.5593 23.6899 26.0127 24.1434 26.0127 24.7027V30.9873C26.0127 31.5466 25.5593 32 25 32V32C24.4407 32 23.9873 31.5466 23.9873 30.9873V24.7027Z" fill="#263041"/>
<path d="M24.5199 25.275C24.2102 24.9574 24.1622 24.4597 24.4051 24.0859V24.0859C24.7177 23.6048 25.3751 23.5233 25.7905 23.914L28.2374 26.215C28.6531 26.606 28.6672 27.2736 28.2684 27.6827V27.6827C27.8815 28.0795 27.2541 28.0795 26.8672 27.6827L24.5199 25.275Z" fill="#263041"/>
<path d="M25.4801 25.275C25.7898 24.9574 25.8378 24.4597 25.5949 24.0859V24.0859C25.2823 23.6048 24.6249 23.5233 24.2095 23.914L21.7626 26.215C21.3469 26.606 21.3328 27.2736 21.7316 27.6827V27.6827C22.1185 28.0795 22.7459 28.0795 23.1328 27.6827L25.4801 25.275Z" fill="#263041"/>
</svg>
