<svg width="50" height="50" viewBox="0 0 50 50" fill="none" xmlns="http://www.w3.org/2000/svg">
<path d="M43 25C43 27.3638 42.5344 29.7044 41.6298 31.8883C40.7252 34.0722 39.3994 36.0565 37.7279 37.7279C36.0565 39.3994 34.0722 40.7252 31.8883 41.6298C29.7044 42.5344 27.3638 43 25 43C22.6362 43 20.2956 42.5344 18.1117 41.6298C15.9278 40.7252 13.9435 39.3994 12.2721 37.7279C10.6006 36.0565 9.27475 34.0722 8.37017 31.8883C7.46558 29.7044 7 27.3638 7 25C7 22.6362 7.46558 20.2956 8.37017 18.1117C9.27475 15.9278 10.6006 13.9435 12.2721 12.2721C13.9435 10.6006 15.9278 9.27475 18.1117 8.37017C20.2956 7.46558 22.6362 7 25 7C27.3638 7 29.7044 7.46558 31.8883 8.37017C34.0722 9.27475 36.0565 10.6006 37.7279 12.2721C39.3994 13.9435 40.7252 15.9278 41.6298 18.1117C42.5344 20.2956 43 22.6362 43 25L43 25Z" stroke="url(#paint0_angular_505_5)" stroke-opacity="0.7" stroke-width="6" stroke-linecap="round"/>
<defs>
<radialGradient id="paint0_angular_505_5" cx="0" cy="0" r="1" gradientUnits="userSpaceOnUse" gradientTransform="translate(25 25) rotate(90) scale(21)">
<stop stop-color="white"/>
<stop offset="1" stop-color="#2D2D2D"/>
</radialGradient>
</defs>
</svg>
